<?xml version="1.0" standalone="no"?>
<!DOCTYPE svg PUBLIC "-//W3C//DTD SVG 20010904//EN"
 "http://www.w3.org/TR/2001/REC-SVG-20010904/DTD/svg10.dtd">
<svg version="1.0" xmlns="http://www.w3.org/2000/svg"
 width="188.000000pt" height="188.000000pt" viewBox="0 0 188.000000 188.000000"
 preserveAspectRatio="xMidYMid meet">
<metadata>
Created by potrace 1.11, written by Peter Selinger 2001-2013
</metadata>
<g transform="translate(0.000000,188.000000) scale(0.100000,-0.100000)"
fill="#000000" stroke="none">
<path d="M868 1771 c-292 -74 -351 -454 -96 -617 21 -13 44 -24 51 -24 12 0
144 199 135 204 -1 1 -20 9 -40 19 -21 9 -38 20 -38 24 0 5 13 30 29 56 l28
48 -41 42 c-23 23 -46 51 -52 62 -7 11 -15 17 -19 13 -11 -11 12 -62 45 -99
30 -33 30 -39 -3 -84 -15 -20 -16 -19 -41 10 -26 31 -56 104 -56 138 0 16 -3
17 -14 8 -13 -11 -13 -19 1 -63 22 -74 55 -122 112 -158 28 -18 49 -36 47 -39
-20 -38 -80 -131 -86 -131 -3 0 -27 14 -52 30 -110 73 -156 198 -110 297 38
83 108 125 215 127 l72 2 37 67 c35 65 36 67 15 71 -59 12 -80 12 -139 -3z"/>
<path d="M1002 1660 c-34 -54 -62 -101 -62 -103 0 -3 13 -10 30 -17 51 -21 54
-33 20 -86 l-30 -48 34 -30 c18 -17 41 -46 50 -65 12 -22 21 -30 28 -23 11 11
-8 54 -47 100 l-25 30 21 36 c17 29 24 34 35 25 24 -20 56 -79 69 -127 10 -37
14 -43 20 -28 22 51 -65 197 -135 226 -16 7 -30 15 -30 18 0 3 18 36 40 74
l41 68 31 -16 c96 -50 165 -159 155 -246 -15 -127 -101 -197 -244 -198 l-61 0
-42 -61 c-23 -34 -38 -65 -33 -69 16 -16 96 -21 147 -9 135 31 224 114 261
243 43 146 -31 317 -164 386 -22 11 -42 20 -43 20 -2 0 -32 -45 -66 -100z"/>
<path d="M625 970 c-3 -5 -14 -10 -24 -10 -27 0 -61 -42 -61 -76 0 -33 35 -74
63 -74 9 0 17 -4 17 -10 0 -5 9 -10 19 -10 11 0 23 5 26 10 3 6 14 10 24 10
27 0 61 42 61 77 0 33 -17 51 -69 77 -40 19 -48 20 -56 6z m0 -82 c3 -43 -2
-50 -26 -38 -24 13 -25 56 -2 69 22 12 24 10 28 -31z m82 4 c4 -18 1 -29 -12
-39 -23 -16 -32 -4 -29 40 3 40 1 37 19 31 8 -4 18 -18 22 -32z"/>
<path d="M834 965 c-104 -43 -63 -188 48 -170 49 8 81 49 75 97 -9 63 -65 98
-123 73z m66 -45 c24 -24 25 -47 3 -72 -20 -22 -56 -23 -73 -3 -18 22 -15 66
6 82 25 18 41 16 64 -7z"/>
<path d="M995 888 c3 -103 1 -97 23 -91 13 3 18 13 17 34 -1 16 1 29 4 30 56
9 65 5 62 -31 -2 -23 14 -41 30 -35 11 4 14 24 12 83 -1 42 -2 80 -2 85 -1 4
-10 7 -21 7 -12 0 -20 -6 -19 -12 6 -46 -1 -56 -33 -55 -27 2 -33 6 -34 25 -2
40 -4 42 -23 42 -17 0 -19 -7 -16 -82z"/>
<path d="M1199 933 c-1 -54 -8 -85 -22 -102 -21 -26 -16 -66 9 -69 16 -2 22 2
20 14 -1 15 8 18 52 19 44 1 52 -1 52 -17 0 -11 7 -18 18 -18 13 0 19 9 20 35
2 19 -2 35 -8 35 -6 0 -10 29 -10 70 l0 70 -65 0 -65 0 -1 -37z m91 -50 c0
-52 0 -53 -31 -53 l-30 0 7 48 c8 58 10 61 34 59 17 -1 20 -9 20 -54z"/>
<path d="M1806 741 c-4 -6 -18 -8 -32 -5 -32 8 -32 -13 1 -28 21 -10 29 -9 42
5 13 12 14 20 6 28 -8 8 -13 8 -17 0z"/>
<path d="M49 677 c-22 -17 -39 -51 -39 -80 0 -32 33 -73 66 -81 27 -7 94 10
94 24 0 15 -28 32 -35 20 -10 -17 -51 -11 -70 10 -38 42 11 104 63 81 20 -10
27 -9 33 1 20 31 -76 53 -112 25z"/>
<path d="M202 618 c0 -107 -1 -106 65 -103 61 3 83 19 83 61 0 29 -20 44 -65
48 -67 7 -60 33 10 31 37 -1 45 2 45 17 0 16 -9 18 -69 18 l-69 0 0 -72z m106
-45 c-2 -12 -14 -19 -36 -21 -27 -3 -32 0 -32 17 0 17 6 21 36 21 28 0 35 -3
32 -17z"/>
<path d="M382 603 l3 -88 64 0 c53 0 65 3 67 18 2 14 -6 17 -48 17 -42 0 -49
3 -46 18 2 12 13 17 36 17 21 0 37 6 43 18 9 15 5 17 -36 17 -37 0 -45 3 -45
18 0 14 8 18 38 17 49 -2 62 4 55 21 -4 10 -23 14 -69 14 l-65 0 3 -87z"/>
<path d="M550 600 c0 -49 2 -90 4 -90 20 0 36 16 36 36 0 20 5 24 30 24 34 0
70 31 70 60 0 37 -35 60 -90 60 l-50 0 0 -90z m92 42 c16 -16 -3 -42 -28 -40
-19 2 -24 8 -24 30 0 22 4 26 22 23 12 -3 25 -8 30 -13z"/>
<path d="M719 683 c-6 -48 -2 -156 6 -162 5 -4 35 -7 65 -7 44 1 55 4 58 19 3
14 -4 17 -42 17 -46 0 -66 12 -44 27 7 4 26 8 43 8 20 0 31 5 33 18 3 14 -4
17 -37 17 -22 0 -42 4 -45 9 -9 14 18 31 43 26 29 -5 51 4 51 21 0 11 -16 14
-65 14 -36 0 -65 -3 -66 -7z"/>
<path d="M901 651 l32 -40 -32 -42 c-37 -51 -38 -58 -10 -56 12 1 31 16 43 34
11 18 24 33 28 33 10 0 22 -23 23 -44 0 -29 35 -30 35 -1 0 42 23 47 52 11 24
-30 58 -44 58 -24 0 5 -13 29 -30 52 l-29 43 29 28 c35 33 38 45 11 45 -10 0
-35 -18 -55 -40 l-36 -40 0 40 c0 33 -3 40 -20 40 -11 0 -19 -3 -19 -7 1 -5 1
-21 0 -38 l-2 -30 -30 38 c-21 24 -39 37 -55 37 l-25 0 32 -39z"/>
<path d="M1164 603 l1 -88 68 0 c57 -1 67 2 67 17 0 13 -10 18 -47 20 -35 2
-48 7 -48 18 0 10 10 15 33 15 18 0 37 7 42 15 8 12 2 16 -33 20 -57 7 -59 34
-2 36 56 2 55 2 55 19 0 12 -14 15 -69 15 l-69 0 2 -87z"/>
<path d="M1330 605 c0 -50 4 -85 10 -85 6 0 13 0 18 0 4 -1 9 14 12 32 4 28 9
32 35 33 27 0 31 -4 35 -35 3 -22 10 -35 20 -35 12 0 16 18 18 88 3 82 2 87
-18 87 -16 0 -20 -6 -20 -35 0 -33 -2 -35 -35 -35 -33 0 -35 2 -35 35 0 28 -4
35 -20 35 -18 0 -20 -7 -20 -85z"/>
<path d="M1520 606 c0 -115 21 -125 74 -36 17 27 32 48 34 45 2 -2 5 -25 6
-51 1 -37 5 -48 19 -50 15 -2 17 8 17 87 0 80 -2 89 -18 89 -11 0 -32 -21 -53
-52 l-34 -53 -3 53 c-3 44 -6 52 -23 52 -17 0 -19 -7 -19 -84z"/>
<path d="M1714 603 c1 -73 4 -86 18 -89 11 -1 28 15 49 47 17 27 34 49 39 49
4 0 6 -20 5 -46 -1 -25 3 -48 8 -51 20 -12 32 21 32 97 1 74 0 80 -19 80 -14
0 -33 -19 -58 -58 l-38 -57 0 58 c0 49 -3 57 -19 57 -16 0 -18 -9 -17 -87z"/>
<path d="M1753 446 c7 -20 36 -31 54 -20 31 20 25 31 -17 30 -22 0 -39 -5 -37
-10z"/>
<path d="M20 321 c0 -86 1 -90 21 -86 26 5 20 -1 58 59 29 47 38 46 31 -3 -3
-27 11 -61 25 -61 11 0 15 13 16 50 0 28 1 67 2 88 0 29 -4 38 -19 40 -14 2
-30 -14 -56 -55 l-38 -58 0 58 c0 50 -2 57 -20 57 -19 0 -20 -7 -20 -89z"/>
<path d="M219 378 c-1 -40 -1 -130 0 -140 1 -5 7 -8 15 -8 16 0 26 21 26 54 0
21 8 23 62 17 4 -1 6 -15 5 -32 -2 -25 2 -33 19 -35 19 -3 20 2 21 86 1 82 -1
90 -18 90 -19 0 -23 -7 -21 -47 1 -20 -4 -23 -33 -23 -31 0 -35 3 -36 28 -1
15 -1 30 0 35 0 4 -8 7 -19 7 -16 0 -20 -7 -21 -32z"/>
<path d="M410 321 l0 -89 59 2 c32 1 66 8 75 15 20 17 21 45 1 65 -9 9 -11 17
-5 21 17 11 11 54 -9 65 -11 5 -42 10 -70 10 l-51 0 0 -89z m98 36 c3 -13 -4
-17 -27 -17 -23 0 -31 5 -31 18 0 25 53 24 58 -1z m5 -56 c4 -1 7 -8 7 -16 0
-10 -11 -15 -35 -15 -27 0 -35 4 -35 18 0 18 10 20 63 13z"/>
<path d="M599 393 c-1 -20 -1 -145 0 -154 1 -3 30 -6 66 -6 57 0 65 2 65 18 0
16 -8 19 -45 19 -25 0 -45 5 -45 10 0 6 0 13 0 17 0 4 17 7 37 8 28 0 39 5 41
18 3 14 -4 17 -37 17 -38 0 -61 14 -47 28 4 3 26 6 49 7 31 1 43 5 45 18 3 15
-6 17 -62 17 -56 0 -66 -3 -67 -17z"/>
<path d="M786 384 c-37 -37 -35 -86 3 -125 32 -31 64 -36 106 -17 29 13 31 21
11 37 -10 8 -16 9 -21 1 -9 -15 -51 -12 -69 6 -41 41 4 105 58 84 36 -13 36
-13 36 9 0 40 -85 44 -124 5z"/>
<path d="M945 400 c-10 -16 4 -30 29 -30 21 0 22 -4 22 -67 -1 -62 1 -68 19
-68 18 0 20 7 20 62 1 67 3 73 32 77 10 2 19 10 21 19 3 15 -7 17 -67 17 -38
0 -73 -4 -76 -10z"/>
<path d="M1120 320 c0 -85 1 -90 20 -87 12 2 36 26 56 55 19 29 36 52 37 52 1
0 2 -23 2 -52 0 -41 3 -52 18 -54 18 -2 19 2 19 91 -1 83 -1 85 -21 85 -11 0
-32 -21 -55 -57 l-36 -58 0 58 c0 50 -2 57 -20 57 -19 0 -20 -7 -20 -90z"/>
<path d="M1319 403 c-1 -11 -1 -134 0 -154 1 -13 12 -16 49 -17 80 0 85 -1 78
-17 -4 -10 1 -15 14 -15 11 0 21 7 21 15 1 8 2 21 3 28 1 6 -3 18 -8 26 -6 8
-11 37 -12 65 -2 75 -2 78 -21 74 -15 -3 -18 -15 -18 -68 l0 -65 -33 -3 c-35
-4 -35 -5 -33 91 0 40 -2 47 -19 47 -11 0 -20 -3 -21 -7z"/>
<path d="M1514 323 c1 -87 2 -90 35 -84 5 0 23 24 40 51 17 28 32 50 34 50 2
0 3 -24 3 -52 1 -46 3 -53 20 -53 17 0 19 9 21 88 1 80 0 87 -18 87 -12 0 -31
-19 -51 -50 -18 -27 -36 -50 -39 -50 -3 0 -5 21 -5 48 1 40 -2 47 -20 50 -19
3 -20 -2 -20 -85z"/>
<path d="M1710 322 c0 -80 2 -88 19 -89 13 -1 30 14 51 48 18 27 35 49 39 49
3 0 6 -21 6 -47 0 -36 4 -47 18 -49 19 -2 19 -2 19 91 0 87 0 85 -19 85 -11 0
-34 -24 -55 -58 l-38 -57 0 58 c0 50 -2 57 -20 57 -18 0 -20 -7 -20 -88z"/>
</g>
</svg>
