<svg width="200" height="200" viewBox="0 0 200 200" fill="none" xmlns="http://www.w3.org/2000/svg">
<g clip-path="url(#clip0)">
<path d="M19.3549 167.742H80.6452V187.097H19.3549V167.742Z" fill="#DFE7E9"/>
<path d="M19.3549 16.129H80.6452V35.4839H19.3549V16.129Z" fill="#377EF9"/>
<path d="M70.9678 106.452H122.581V158.064H70.9678V106.452Z" fill="#DFE7E9"/>
<path d="M103.226 48.3871H116.129V93.5484H103.226V48.3871Z" fill="#377EF9"/>
<path d="M77.4194 58.0645H90.3227V93.5484H77.4194V58.0645Z" fill="#377EF9"/>
<path d="M51.6129 67.7419H64.5161V93.5484H51.6129V67.7419Z" fill="#377EF9"/>
<path d="M25.8065 80.6451H38.7097V93.5484H25.8065V80.6451Z" fill="#377EF9"/>
<path d="M12.9032 90.3226H129.032V96.7742H12.9032V90.3226Z" fill="black"/>
<path d="M70.9678 103.226H122.581V109.677H70.9678V103.226Z" fill="black"/>
<path d="M70.9678 116.129H122.581V122.581H70.9678V116.129Z" fill="black"/>
<path d="M70.9678 129.032H122.581V135.484H70.9678V129.032Z" fill="black"/>
<path d="M32.2581 167.742H80.6452V174.194H32.2581V167.742Z" fill="black"/>
<path d="M19.3549 167.742H25.8065V174.194H19.3549V167.742Z" fill="black"/>
<path d="M32.2581 180.645H80.6452V187.097H32.2581V180.645Z" fill="black"/>
<path d="M19.3549 180.645H25.8065V187.097H19.3549V180.645Z" fill="black"/>
<path d="M19.3549 16.129H67.742V22.5806H19.3549V16.129Z" fill="black"/>
<path d="M74.1936 16.129H80.6452V22.5806H74.1936V16.129Z" fill="black"/>
<path d="M19.3549 29.0322H67.742V35.4838H19.3549V29.0322Z" fill="black"/>
<path d="M74.1936 29.0322H80.6452V35.4838H74.1936V29.0322Z" fill="black"/>
<path d="M183.778 32.2581C176.622 32.2581 170.398 36.8479 168.281 43.6838L141.935 128.793V34.1482L107.787 0H0V200H141.935V195.057L160.868 179.284L199.283 54.4292C199.757 52.884 200 51.2774 200 49.6582V48.48C200 39.535 192.723 32.2581 183.778 32.2581V32.2581ZM151.12 179.007L140.449 187.9L136.894 175.452L151.12 179.007ZM136.349 168.668L164.242 78.5519L170.765 80.8168L142.985 170.328L136.349 168.668ZM166.148 72.3838L168.197 65.7652L187.146 71.9349L184.997 78.922L166.148 72.3838ZM109.677 11.0131L130.922 32.2581H109.677V11.0131ZM6.45161 6.45161H103.226V38.7097H135.484V149.639L129.177 170.013L128.894 170.928L135.355 193.548H6.45161V6.45161ZM155.881 173.548L149.255 171.894L176.865 82.9291L183.101 85.0932L155.881 173.548ZM193.548 49.6582C193.548 50.6316 193.403 51.6003 193.117 52.5328L189.042 65.7683L170.103 59.6002L174.439 45.5929C175.717 41.474 179.467 38.7097 183.778 38.7097C189.165 38.7097 193.548 43.0932 193.548 48.48V49.6582Z" fill="black"/>
<path d="M70.9678 141.935H122.581V148.387H70.9678V141.935Z" fill="black"/>
<path d="M70.9678 154.839H122.581V161.29H70.9678V154.839Z" fill="black"/>
<path d="M31.24 145V141.148H28.36V137.656H31.24V134.848H28.36V130.384H31.24V119.296H39.448C42.76 119.296 45.172 119.968 46.684 121.312C48.22 122.656 48.988 124.504 48.988 126.856C48.988 128.248 48.676 129.556 48.052 130.78C47.428 132.004 46.384 132.988 44.92 133.732C43.48 134.476 41.512 134.848 39.016 134.848H36.676V137.656H42.22V141.148H36.676V145H31.24ZM36.676 130.384H38.476C40.012 130.384 41.224 130.12 42.112 129.592C43.024 129.064 43.48 128.212 43.48 127.036C43.48 124.852 42.04 123.76 39.16 123.76H36.676V130.384Z" fill="#162D5A"/>
</g>
<defs>
<clipPath id="clip0">
<rect width="200" height="200" fill="white"/>
</clipPath>
</defs>
</svg>
