<svg width="72" height="72" viewBox="0 0 72 72" fill="none" xmlns="http://www.w3.org/2000/svg">
<g clip-path="url(#clip0)">
<path d="M24.3871 9.29034C24.3871 12.4969 21.7872 15.0968 18.5806 15.0968C15.3741 15.0968 12.7742 12.4969 12.7742 9.29034C12.7742 6.08375 15.3741 3.48389 18.5806 3.48389C21.7872 3.48389 24.3871 6.08375 24.3871 9.29034Z" fill="#377EF9"/>
<path d="M55.7419 1.16125H72V10.4516H55.7419V1.16125Z" fill="#377EF9"/>
<path d="M62.7097 16.2581H67.3548V38.3226H62.7097V16.2581Z" fill="#377EF9"/>
<path d="M53.4194 23.2258H58.0645V38.3226H53.4194V23.2258Z" fill="#377EF9"/>
<path d="M44.129 29.0322H48.7742V38.3225H44.129V29.0322Z" fill="#377EF9"/>
<path d="M27.2217 12.5978C27.6436 11.5783 27.871 10.468 27.871 9.2903C27.871 6.56002 26.6774 3.97944 24.5963 2.20972C22.5164 0.440001 19.7595 -0.318126 17.027 0.12643C12.5394 0.856773 9.21377 4.86459 9.29146 9.44681C9.31017 10.5656 9.54095 11.6197 9.94411 12.5956C3.86719 15.7914 0 22.1133 0 29.0322C0 37.671 5.93517 44.9302 13.9355 47.0011V49.9355H11.6129V52.258H13.9355V54.5806H11.6129V56.9032H13.9355V67.3548C13.9355 69.9167 16.0188 72 18.5806 72C21.1425 72 23.2258 69.9167 23.2258 67.3548V56.9032H25.5484V54.5806H23.2258V52.258H25.5484V49.9355H23.2258V47.0011C31.2261 44.9302 37.1613 37.671 37.1613 29.0322C37.1613 22.1144 33.2964 15.7948 27.2217 12.5978ZM17.4006 2.41896C17.8015 2.35375 18.1996 2.32143 18.5937 2.32143C20.2472 2.32143 21.8116 2.893 23.0897 3.97944C24.653 5.30687 25.5484 7.24274 25.5484 9.2903C25.5484 12.6347 23.2814 14.3335 21.781 15.0968H19.7419V12.5604C21.0903 12.0796 22.0645 10.802 22.0645 9.2903C22.0645 7.36975 20.5012 5.80643 18.5806 5.80643C16.6601 5.80643 15.0968 7.36975 15.0968 9.2903C15.0968 10.802 16.0709 12.0796 17.4194 12.5604V15.0968H15.3803C13.9043 14.3454 11.6685 12.6778 11.614 9.40881C11.5573 6.02701 14.0994 2.95651 17.4006 2.41896ZM20.9032 17.4193V19.7419H16.2581V17.4193H20.9032ZM17.4194 9.2903C17.4194 8.65069 17.9399 8.12901 18.5806 8.12901C19.2214 8.12901 19.7419 8.65069 19.7419 9.2903C19.7419 9.92992 19.2214 10.4516 18.5806 10.4516C17.9399 10.4516 17.4194 9.92992 17.4194 9.2903ZM20.9032 22.0645C20.9032 23.3454 19.8616 24.3871 18.5806 24.3871C17.2997 24.3871 16.2581 23.3454 16.2581 22.0645H20.9032ZM18.5806 26.7097C21.1425 26.7097 23.2258 24.6264 23.2258 22.0645V18.4077C27.3924 20.233 30.1935 24.3973 30.1935 29.0322C30.1935 35.4358 24.9842 40.6451 18.5806 40.6451C12.1771 40.6451 6.96774 35.4358 6.96774 29.0322C6.96774 24.3973 9.7689 20.233 13.9355 18.4077V22.0645C13.9355 24.6264 16.0188 26.7097 18.5806 26.7097ZM20.9032 67.3548C20.9032 68.6358 19.8616 69.6774 18.5806 69.6774C17.2997 69.6774 16.2581 68.6358 16.2581 67.3548V56.9032H20.9032V67.3548ZM20.9032 54.5806H16.2581V52.258H20.9032V54.5806ZM20.9032 49.9355H16.2581V47.4513C17.0213 47.5477 17.7919 47.6129 18.5806 47.6129C19.3694 47.6129 20.14 47.5477 20.9032 47.4513V49.9355ZM18.5806 45.2903C9.61523 45.2903 2.32258 37.9977 2.32258 29.0322C2.32258 22.9411 5.74975 17.3819 11.1253 14.6023C11.6305 15.2374 12.2293 15.8146 12.9239 16.317C7.96856 18.5262 4.64516 23.5008 4.64516 29.0322C4.64516 36.7167 10.8962 42.9677 18.5806 42.9677C26.2651 42.9677 32.5161 36.7167 32.5161 29.0322C32.5161 23.5008 29.1927 18.5262 24.2374 16.317C24.9332 15.8146 25.5353 15.2385 26.0406 14.6046C31.4138 17.3847 34.8387 22.9423 34.8387 29.0322C34.8387 37.9977 27.5461 45.2903 18.5806 45.2903Z" fill="black"/>
<path d="M17.4194 31.3549H19.7419V33.6774H17.4194V31.3549Z" fill="black"/>
<path d="M23.2258 31.3549H25.5484V33.6774H23.2258V31.3549Z" fill="black"/>
<path d="M11.6129 31.3549H13.9355V33.6774H11.6129V31.3549Z" fill="black"/>
<path d="M39.4839 37.1613H72V39.4838H39.4839V37.1613Z" fill="black"/>
<path d="M55.7419 0H72V2.32258H55.7419V0Z" fill="black"/>
<path d="M55.7419 9.29028H72V11.6129H55.7419V9.29028Z" fill="black"/>
<path d="M55.7419 4.64514H58.0645V6.96772H55.7419V4.64514Z" fill="black"/>
<path d="M60.3871 4.64514H72V6.96772H60.3871V4.64514Z" fill="black"/>
<path d="M43.2626 17.9722L46.9869 7.73324C47.153 7.27564 47.5908 6.96774 48.0773 6.96774H53.4194V4.64516H48.0773C46.6178 4.64516 45.3017 5.56603 44.8049 6.93882L41.0795 17.1789C40.9678 17.4857 40.4399 17.446 40.377 17.1245L37.5117 2.80116C37.1879 1.17887 35.7516 0 34.0953 0H29.0323V2.32258H34.0953C34.6482 2.32258 35.1268 2.71497 35.2334 3.25649L38.0986 17.5798C38.3492 18.8324 39.4595 19.7419 40.7359 19.7419C41.8632 19.7419 42.8793 19.0303 43.2626 17.9722Z" fill="black"/>
<path d="M50.16 64V61.432H48.24V59.104H50.16V57.232H48.24V54.256H50.16V46.864H55.632C57.84 46.864 59.448 47.312 60.456 48.208C61.48 49.104 61.992 50.336 61.992 51.904C61.992 52.832 61.784 53.704 61.368 54.52C60.952 55.336 60.256 55.992 59.28 56.488C58.32 56.984 57.008 57.232 55.344 57.232H53.784V59.104H57.48V61.432H53.784V64H50.16ZM53.784 54.256H54.984C56.008 54.256 56.816 54.08 57.408 53.728C58.016 53.376 58.32 52.808 58.32 52.024C58.32 50.568 57.36 49.84 55.44 49.84H53.784V54.256Z" fill="#162D5A"/>
</g>
<defs>
<clipPath id="clip0">
<rect width="72" height="72" fill="white"/>
</clipPath>
</defs>
</svg>
