<svg width="72" height="72" viewBox="0 0 72 72" fill="none" xmlns="http://www.w3.org/2000/svg">
<g clip-path="url(#clip0)">
<path d="M0.145142 49.9354H11.758V61.5483H0.145142V49.9354Z" fill="#377EF9"/>
<path d="M51.2362 14.0273C51.2362 13.9973 51.2419 13.9655 51.2419 13.9355C51.2419 7.53194 46.0326 2.32258 39.629 2.32258C36.3413 2.32258 33.3757 3.70218 31.2607 5.90398C28.6665 2.23185 24.4512 0 19.8871 0C12.2026 0 5.95159 6.25101 5.95159 13.9355C5.95159 14.0495 5.96577 14.1595 5.96917 14.2734C2.60721 15.2697 0.145142 18.3833 0.145142 22.0645C0.145142 26.5469 3.79175 30.1935 8.27417 30.1935H17.5645V27.871H8.27417C5.07269 27.871 2.46772 25.266 2.46772 22.0645C2.46772 18.863 5.07269 16.2581 8.27417 16.2581C11.4757 16.2581 14.0806 18.863 14.0806 22.0645H16.4032C16.4032 17.5821 12.7566 13.9355 8.27417 13.9355C8.27417 7.53194 13.4835 2.32258 19.8871 2.32258C23.934 2.32258 27.6424 4.43706 29.7535 7.85629C28.6597 9.62714 28.0161 11.7048 28.0161 13.9355H30.3387C30.3387 8.81288 34.5064 4.64516 39.629 4.64516C44.7516 4.64516 48.9193 8.81288 48.9193 13.9355C48.9193 15.437 48.5723 16.8699 47.8879 18.1939L49.9508 19.26C50.4243 18.3436 50.7577 17.3604 50.9726 16.3477C53.7494 16.782 55.8871 19.1681 55.8871 22.0645C55.8871 25.266 53.2821 27.871 50.0806 27.871H40.7903V30.1935H50.0806C54.5631 30.1935 58.2097 26.5469 58.2097 22.0645C58.2097 17.9756 55.1715 14.5915 51.2362 14.0273Z" fill="black"/>
<path d="M65.1774 0.508667L58.479 8.54697L60.2629 10.0337L64.0161 5.53034V26.3984C56.521 39.7833 45.6181 51.0248 32.4628 58.9191C27.0652 62.158 20.8834 63.871 14.5881 63.871H11.758V66.1936H14.5881C17.5622 66.1936 20.5074 65.8148 23.3709 65.1157V69.6775H0.145142V72H66.3387V5.53034L70.0919 10.0337L71.8758 8.54697L65.1774 0.508667ZM58.2097 39.2446V69.6775H54.7258V43.4123C55.9279 42.0583 57.0892 40.6684 58.2097 39.2446ZM52.4032 45.9373V69.6775H48.9193V49.3804C50.1107 48.2645 51.2731 47.1174 52.4032 45.9373ZM43.1129 54.3714C44.2974 53.437 45.4621 52.4775 46.5968 51.4847V69.6775H43.1129V54.3714ZM40.7903 69.6775H37.3064V58.5896C38.4876 57.8009 39.65 56.9895 40.7903 56.1474V69.6775ZM33.6576 60.9111C34.1049 60.6429 34.5427 60.3628 34.9839 60.0877V69.6775H31.5V62.1081C32.2303 61.7333 32.9505 61.3347 33.6576 60.9111ZM25.6935 64.4681C26.8724 64.0973 28.0394 63.6873 29.1774 63.1996V69.6775H25.6935V64.4681ZM64.0161 69.6775H60.5322V36.1543C61.7491 34.4622 62.9166 32.7333 64.0161 30.958V69.6775Z" fill="black"/>
<path d="M0.145142 49.9354H2.46772V52.258H0.145142V49.9354Z" fill="black"/>
<path d="M4.79028 49.9354H7.11286V52.258H4.79028V49.9354Z" fill="black"/>
<path d="M9.43542 49.9354H11.758V52.258H9.43542V49.9354Z" fill="black"/>
<path d="M4.79028 54.5807H7.11286V56.9033H4.79028V54.5807Z" fill="black"/>
<path d="M9.43542 54.5807H11.758V56.9033H9.43542V54.5807Z" fill="black"/>
<path d="M9.43542 59.2258H11.758V61.5484H9.43542V59.2258Z" fill="black"/>
<path d="M29.1775 52.2581C20.8534 52.2581 14.0807 45.4854 14.0807 37.1613C14.0807 28.8373 20.8534 22.0646 29.1775 22.0646C37.5016 22.0646 44.2742 28.8373 44.2742 37.1613C44.2742 45.4854 37.5016 52.2581 29.1775 52.2581Z" fill="#377EF9"/>
<path d="M29.1775 26.7097C26.8418 26.7097 24.6287 27.4712 22.7739 28.9115L24.1989 30.7453C25.6414 29.6243 27.3635 29.0323 29.1775 29.0323C33.6599 29.0323 37.3065 32.6789 37.3065 37.1613C37.3065 38.9753 36.7145 40.6974 35.5935 42.1399L37.4273 43.5649C38.8675 41.7112 39.6291 39.4981 39.6291 37.1613C39.6291 31.3991 34.9397 26.7097 29.1775 26.7097Z" fill="black"/>
<path d="M29.1774 47.6128C23.4152 47.6128 18.7258 42.9246 18.7258 37.1612C18.7258 34.8256 19.4874 32.6125 20.9276 30.7577L22.7614 32.1827C21.6404 33.6252 21.0484 35.3473 21.0484 37.1612C21.0484 41.6425 24.695 45.2903 29.1774 45.2903C30.9914 45.2903 32.7135 44.6983 34.156 43.5761L35.581 45.411C33.7262 46.8524 31.5131 47.6128 29.1774 47.6128Z" fill="black"/>
<path d="M27.26 42V40.502H26.14V39.144H27.26V38.052H26.14V36.316H27.26V32.004H30.452C31.74 32.004 32.678 32.2653 33.266 32.788C33.8633 33.3107 34.162 34.0293 34.162 34.944C34.162 35.4853 34.0407 35.994 33.798 36.47C33.5553 36.946 33.1493 37.3287 32.58 37.618C32.02 37.9073 31.2547 38.052 30.284 38.052H29.374V39.144H31.53V40.502H29.374V42H27.26ZM29.374 36.316H30.074C30.6713 36.316 31.1427 36.2133 31.488 36.008C31.8427 35.8027 32.02 35.4713 32.02 35.014C32.02 34.1647 31.46 33.74 30.34 33.74H29.374V36.316Z" fill="white"/>
</g>
<defs>
<clipPath id="clip0">
<rect width="72" height="72" fill="white"/>
</clipPath>
</defs>
</svg>
