<svg width="72" height="72" viewBox="0 0 72 72" fill="none" xmlns="http://www.w3.org/2000/svg">
<g clip-path="url(#clip0)">
<path d="M22.0291 19.7559H49.9198V31.377H22.0291V19.7559Z" fill="#DFE7E9"/>
<path d="M38.8309 71.9998L36.009 60.7123L38.264 60.1472L40.0906 67.4535L42.7179 64.8263L45.7094 66.3215L42.9959 57.277L45.2225 56.6097L49.4817 70.8076L43.1758 67.6544L38.8309 71.9998Z" fill="black"/>
<path d="M45.2713 16.2694H26.6775V9.29675H45.2713V16.2694Z" fill="#377EF9"/>
<path d="M22.0291 19.7559H34.8123V22.0801H22.0291V19.7559Z" fill="black"/>
<path d="M37.1366 19.7559H49.9199V22.0801H37.1366V19.7559Z" fill="black"/>
<path d="M22.0291 29.0531H34.8123V31.3773H22.0291V29.0531Z" fill="black"/>
<path d="M47.5956 29.0531H49.9198V31.3773H47.5956V29.0531Z" fill="black"/>
<path d="M37.1366 29.0531H45.2714V31.3773H37.1366V29.0531Z" fill="black"/>
<path d="M22.0291 24.4045H49.9198V26.7288H22.0291V24.4045Z" fill="black"/>
<path d="M1.11096 0V55.7815H25.3338V53.4573H3.43519V2.32423H68.5136V53.4573H46.6156V55.7815H70.8379V0H1.11096Z" fill="black"/>
<path d="M14.9634 6.97279H56.9856C57.498 10.5278 60.3102 13.3412 63.8653 13.8524V41.9293C60.3102 42.4417 57.4969 45.2539 56.9856 48.8089H47.8487V51.1332H66.1895V4.64856H5.75952V51.1332H24.0986V48.8089H14.9634C14.451 45.2539 11.6388 42.4406 8.08375 41.9293V13.8524C11.6388 13.3412 14.4521 10.5278 14.9634 6.97279V6.97279ZM63.8653 48.8089H59.3343C59.7979 46.5358 61.5921 44.7415 63.8653 44.2779V48.8089ZM63.8653 6.97279V11.5038C61.5921 11.0402 59.7979 9.24595 59.3343 6.97279H63.8653ZM12.6147 6.97279C12.1512 9.24595 10.3569 11.0402 8.08375 11.5038V6.97279H12.6147ZM12.6147 48.8089H8.08375V44.2779C10.3569 44.7415 12.1512 46.5358 12.6147 48.8089Z" fill="black"/>
<path d="M33.118 71.9998L28.7725 67.6544L22.4672 70.8076L26.7264 56.6097L28.953 57.277L26.2395 66.3215L29.2305 64.8263L31.8583 67.4535L33.6849 60.1472L35.9399 60.7123L33.118 71.9998Z" fill="black"/>
<path d="M35.9744 61.5921C34.6869 61.5921 33.4885 61.0666 32.6231 60.1525C31.4179 60.51 30.1185 60.3681 29.0017 59.7246C27.8862 59.0794 27.1122 58.028 26.8194 56.8017C25.5931 56.5089 24.5417 55.735 23.8965 54.6194C23.2525 53.5038 23.1089 52.2055 23.4686 50.998C22.5545 50.1326 22.0291 48.9342 22.0291 47.6467C22.0291 46.3592 22.5545 45.1607 23.4686 44.2954C23.1089 43.0879 23.2525 41.7896 23.8965 40.674C24.5417 39.5584 25.5931 38.7844 26.8194 38.4916C27.1122 37.2654 27.8862 36.2139 29.0017 35.5687C30.1185 34.9253 31.4179 34.7823 32.6231 35.1409C33.4885 34.2267 34.6869 33.7013 35.9744 33.7013C37.262 33.7013 38.4604 34.2267 39.3257 35.1409C40.531 34.7823 41.8293 34.9253 42.9471 35.5687C44.0627 36.2139 44.8367 37.2654 45.1295 38.4916C46.3557 38.7844 47.4072 39.5584 48.0524 40.674C48.6958 41.7896 48.84 43.0879 48.4797 44.2954C49.3944 45.1607 49.9198 46.3592 49.9198 47.6467C49.9198 48.9342 49.3944 50.1326 48.4797 50.998C48.84 52.2055 48.6958 53.5038 48.0524 54.6194C47.4072 55.735 46.3557 56.5089 45.1295 56.8017C44.8367 58.028 44.0627 59.0794 42.9471 59.7246C41.8293 60.3681 40.531 60.51 39.3257 60.1525C38.4604 61.0666 37.262 61.5921 35.9744 61.5921V61.5921Z" fill="#377EF9"/>
<path d="M35.9744 37.1875C30.2081 37.1875 25.5154 41.8802 25.5154 47.6465C25.5154 53.4129 30.2081 58.1056 35.9744 58.1056C41.7407 58.1056 46.4335 53.4129 46.4335 47.6465C46.4335 41.8802 41.7407 37.1875 35.9744 37.1875V37.1875ZM35.9744 55.7813C31.4888 55.7813 27.8396 52.1321 27.8396 47.6465C27.8396 43.1609 31.4888 39.5117 35.9744 39.5117C40.46 39.5117 44.1092 43.1609 44.1092 47.6465C44.1092 52.1321 40.46 55.7813 35.9744 55.7813V55.7813Z" fill="black"/>
</g>
<defs>
<clipPath id="clip0">
<rect width="72" height="72" fill="white"/>
</clipPath>
</defs>
</svg>
