<svg width="72" height="72" viewBox="0 0 72 72" fill="none" xmlns="http://www.w3.org/2000/svg">
<path d="M6.96774 5.8064H12.7742V38.3225H6.96774V5.8064Z" fill="#377EF9"/>
<path d="M61.5484 37.1613V8.12903H55.2611L41.3256 22.0645H21.4153L13.9355 34.2195V0H11.6129V4.64516H6.96774V6.96774H11.6129V11.6129H6.96774V13.9355H11.6129V18.5806H6.96774V20.9032H11.6129V25.5484H6.96774V27.871H11.6129V32.5161H6.96774V34.8387H11.6129V37.1613H0V72H72V37.1613H61.5484ZM59.2258 37.1613H56.9032V10.4516H59.2258V37.1613ZM54.5806 37.1613H52.2581V14.4163L54.5806 12.0938V37.1613ZM22.0645 25.4418V37.1613H19.7419V29.216L22.0645 25.4418ZM14.8518 37.1613L17.4194 32.9902V37.1613H14.8518ZM69.6774 69.6774H2.32258V39.4839H24.3871V24.3871H26.7097V36H29.0323V24.3871H31.3548V33.6774H33.6774V24.3871H36V33.6774H38.3226V24.3871H40.6452V34.8387H42.9677V23.7067L45.2903 21.3841V37.1613H47.6129V19.0615L49.9355 16.7389V37.1613H47.6129V39.4839H69.6774V69.6774Z" fill="black"/>
<path d="M55.7419 3.96472V5.80645H58.0645V0H52.2581V2.32258H54.0998L39.003 17.4194H16.2581V19.7419H39.9647L55.7419 3.96472Z" fill="black"/>
<path d="M6.96775 44.129H10.4516V41.8064H4.64516V47.6129H6.96775V44.129Z" fill="black"/>
<path d="M36 67.3548C26.395 67.3548 18.5806 59.5405 18.5806 49.9355C18.5806 40.3304 26.395 32.5161 36 32.5161C45.605 32.5161 53.4194 40.3304 53.4194 49.9355C53.4194 59.5405 45.605 67.3548 36 67.3548Z" fill="#377EF9"/>
<path d="M6.96775 61.5483H4.64516V67.3548H10.4516V65.0322H6.96775V61.5483Z" fill="black"/>
<path d="M65.0323 47.6129H67.3548V41.8064H61.5484V44.129H65.0323V47.6129Z" fill="black"/>
<path d="M65.0323 65.0322H61.5484V67.3548H67.3548V61.5483H65.0323V65.0322Z" fill="black"/>
<path d="M65.0323 53.4193H67.3548V55.7419H65.0323V53.4193Z" fill="black"/>
<path d="M60.3871 53.4193H62.7097V55.7419H60.3871V53.4193Z" fill="black"/>
<path d="M55.7419 53.4193H58.0645V55.7419H55.7419V53.4193Z" fill="black"/>
<path d="M36 37.1613C28.9568 37.1613 23.2258 42.8923 23.2258 49.9354C23.2258 56.9786 28.9568 62.7096 36 62.7096C43.0431 62.7096 48.7742 56.9786 48.7742 49.9354C48.7742 42.8923 43.0431 37.1613 36 37.1613ZM36 60.3871C30.2366 60.3871 25.5484 55.6977 25.5484 49.9354C25.5484 44.1732 30.2366 39.4838 36 39.4838C41.7633 39.4838 46.4516 44.1732 46.4516 49.9354C46.4516 55.6977 41.7633 60.3871 36 60.3871Z" fill="black"/>
<path d="M13.9355 53.4193H16.2581V55.7419H13.9355V53.4193Z" fill="black"/>
<path d="M9.29032 53.4193H11.6129V55.7419H9.29032V53.4193Z" fill="black"/>
<path d="M4.64516 53.4193H6.96775V55.7419H4.64516V53.4193Z" fill="black"/>
<path d="M32.62 56V54.074H31.18V52.328H32.62V50.924H31.18V48.692H32.62V43.148H36.724C38.38 43.148 39.586 43.484 40.342 44.156C41.11 44.828 41.494 45.752 41.494 46.928C41.494 47.624 41.338 48.278 41.026 48.89C40.714 49.502 40.192 49.994 39.46 50.366C38.74 50.738 37.756 50.924 36.508 50.924H35.338V52.328H38.11V54.074H35.338V56H32.62ZM35.338 48.692H36.238C37.006 48.692 37.612 48.56 38.056 48.296C38.512 48.032 38.74 47.606 38.74 47.018C38.74 45.926 38.02 45.38 36.58 45.38H35.338V48.692Z" fill="white"/>
</svg>
