<svg width="200" height="200" viewBox="0 0 200 200" fill="none" xmlns="http://www.w3.org/2000/svg">
<g clip-path="url(#clip0)">
<path d="M158.065 174.194C149.455 174.194 141.332 172.141 134.074 168.591L129.938 153.423C128.465 148.02 127.361 142.235 126.655 136.232L120.248 136.98C120.99 143.306 122.159 149.409 123.713 155.116L126.084 163.806C114.461 155.423 106.274 142.622 103.958 127.868L107.4 131.31L111.961 126.748L100 114.793L88.0419 126.752L92.6034 131.313L97.2515 126.665C99.6425 146.658 111.662 163.722 128.558 173.045C128.854 174.298 129.032 175.575 129.032 176.862C129.032 186.065 121.546 193.548 112.346 193.548H23.1382C13.9381 193.548 6.45161 186.065 6.45161 176.862C6.45161 175.378 6.65165 173.901 7.04228 172.467L11.7739 155.119C14.661 144.516 16.129 133.567 16.129 122.581C16.129 94.1233 39.2846 70.9677 67.742 70.9677C91.296 70.9677 111.832 86.9188 117.681 109.764L123.932 108.164C119.462 90.7006 107.348 76.835 91.7355 69.7297C94.7219 68.0806 96.7742 64.9383 96.7742 61.2903C96.7742 58.1385 95.2385 55.3648 92.8995 53.5975L109.677 36.8196V27.0382L97.8736 21.1394L100.932 15.0265L87.0968 5.79952L78.1676 11.755L69.3549 0H61.2903V16.129H42.8349L40.5258 23.0579L36.8196 19.3548H19.3548V33.5938L40.9416 55.1805C39.5681 56.8548 38.7097 58.9607 38.7097 61.2903C38.7097 64.9509 40.7778 68.1058 43.7878 69.7518C23.7005 78.8968 9.67742 99.1132 9.67742 122.581C9.67742 132.997 8.28661 143.37 5.54908 153.426L0.815903 170.771C0.274068 172.755 0 174.803 0 176.862C0 189.62 10.3799 200 23.1382 200H112.343C125.104 200 135.484 189.62 135.484 176.862C135.484 176.662 135.448 176.465 135.445 176.265C142.452 179.061 150.071 180.645 158.065 180.645V174.194ZM25.8065 25.8065H34.1482L43.3452 35.0066L47.4877 22.5806H61.2903V38.7097H67.742V8.6032L76.6712 20.5031L87.0968 13.5553L92.616 17.2348L84.2128 34.0427L89.984 36.9298L94.9944 26.909L103.226 31.0263V34.1482L85.7611 51.6129H77.8478L80.62 29.4323L74.2188 28.6322L71.3458 51.6129H57.6361L54.8072 31.7997L48.4233 32.7133L51.1199 51.6129H48.3871C47.7996 51.6129 47.2294 51.6869 46.6703 51.7877L25.8065 30.9224V25.8065ZM48.3871 64.5161C46.6104 64.5161 45.1613 63.0702 45.1613 61.2903C45.1613 59.5105 46.6104 58.0645 48.3871 58.0645H87.0968C88.8735 58.0645 90.3226 59.5105 90.3226 61.2903C90.3226 63.0702 88.8735 64.5161 87.0968 64.5161H48.3871Z" fill="black"/>
<path d="M67.742 83.8709V77.4193C65.4219 77.4193 63.0876 77.6004 60.8005 77.9517L61.7834 84.3293C63.7491 84.0253 65.7511 83.8709 67.742 83.8709Z" fill="black"/>
<path d="M22.5806 122.581C22.5806 134.136 21.0386 145.654 17.9971 156.819L24.2219 158.513C27.413 146.799 29.0322 134.709 29.0322 122.581C29.0322 105.741 39.8028 90.9384 55.8325 85.7453L53.8448 79.6102C35.1452 85.6681 22.5806 102.936 22.5806 122.581Z" fill="black"/>
<path d="M164.516 174.193H170.968V180.645H164.516V174.193Z" fill="black"/>
<path d="M177.419 174.193H183.871V180.645H177.419V174.193Z" fill="black"/>
<path d="M158.065 161.29C134.942 161.29 116.129 142.477 116.129 119.355C116.129 96.2323 134.942 77.4193 158.065 77.4193C181.187 77.4193 200 96.2323 200 119.355C200 142.477 181.187 161.29 158.065 161.29Z" fill="#377EF9"/>
<path d="M180.981 137.142L175.887 133.184C179.001 129.177 180.645 124.394 180.645 119.355C180.645 106.907 170.516 96.7741 158.064 96.7741C153.026 96.7741 148.245 98.4185 144.238 101.536L140.277 96.4386C145.429 92.4347 151.577 90.3225 158.064 90.3225C174.071 90.3225 187.097 103.345 187.097 119.355C187.097 125.846 184.981 131.993 180.981 137.142V137.142Z" fill="black"/>
<path d="M158.064 148.387C142.058 148.387 129.032 135.364 129.032 119.355C129.032 112.864 131.148 106.713 135.148 101.564L140.242 105.529C137.128 109.532 135.484 114.316 135.484 119.355C135.484 131.803 145.613 141.935 158.064 141.935C163.103 141.935 167.887 140.291 171.894 137.174L175.852 142.271C170.7 146.275 164.552 148.387 158.064 148.387Z" fill="black"/>
<path d="M150.24 132V128.148H147.36V124.656H150.24V121.848H147.36V117.384H150.24V106.296H158.448C161.76 106.296 164.172 106.968 165.684 108.312C167.22 109.656 167.988 111.504 167.988 113.856C167.988 115.248 167.676 116.556 167.052 117.78C166.428 119.004 165.384 119.988 163.92 120.732C162.48 121.476 160.512 121.848 158.016 121.848H155.676V124.656H161.22V128.148H155.676V132H150.24ZM155.676 117.384H157.476C159.012 117.384 160.224 117.12 161.112 116.592C162.024 116.064 162.48 115.212 162.48 114.036C162.48 111.852 161.04 110.76 158.16 110.76H155.676V117.384Z" fill="white"/>
</g>
<defs>
<clipPath id="clip0">
<rect width="200" height="200" fill="white"/>
</clipPath>
</defs>
</svg>
