<svg width="200" height="200" viewBox="0 0 200 200" fill="none" xmlns="http://www.w3.org/2000/svg">
<path d="M158.065 100.325C158.065 132.394 132.068 158.389 100 158.389C67.9326 158.389 41.9355 132.394 41.9355 100.325C41.9355 68.257 67.9326 42.26 100 42.26C132.068 42.26 158.065 68.257 158.065 100.325Z" fill="#377EF9"/>
<path d="M174.193 100.324H167.742C167.742 137.676 137.352 168.066 99.9999 168.066C62.648 168.066 32.258 137.676 32.258 100.324C32.258 65.8093 58.2251 37.2936 91.6425 33.1543L84.816 39.9808L89.3775 44.5407L104.561 29.3567L89.3775 14.1743L84.816 18.7342L92.5844 26.5026C55.1426 30.2356 25.8064 61.9156 25.8064 100.324C25.8064 141.238 59.0867 174.518 99.9999 174.518C140.913 174.518 174.193 141.238 174.193 100.324Z" fill="black"/>
<path d="M77.325 2.873L83.649 1.61292L84.9091 7.9401L78.585 9.1986L77.325 2.873Z" fill="black"/>
<path d="M58.7512 9.1702L64.7114 6.70044L67.1796 12.6606L61.221 15.1304L58.7512 9.1702Z" fill="black"/>
<path d="M41.759 18.9706L47.1191 15.3872L50.704 20.752L45.3424 24.3338L41.759 18.9706Z" fill="black"/>
<path d="M27.0083 31.8958L31.5698 27.3344L36.1329 31.8958L31.5698 36.4589L27.0083 31.8958Z" fill="black"/>
<path d="M27.6005 41.0802L22.609 36.9896C8.02829 54.7898 0 77.2807 0 100.324C0 124.97 9.0458 148.644 25.4678 166.994L30.2734 162.689C14.9131 145.528 6.45161 123.381 6.45161 100.324C6.45161 78.7676 13.9617 57.729 27.6005 41.0802Z" fill="black"/>
<path d="M115.089 192.698L121.413 191.438L122.673 197.762L116.349 199.022L115.089 192.698Z" fill="black"/>
<path d="M132.812 187.987L138.773 185.517L141.241 191.477L135.282 193.947L132.812 187.987Z" fill="black"/>
<path d="M149.283 179.894L154.643 176.312L158.228 181.675L152.867 185.259L149.283 179.894Z" fill="black"/>
<path d="M163.866 168.758L168.427 164.195L172.989 168.758L168.427 173.319L163.866 168.758Z" fill="black"/>
<path d="M174.532 33.6567L169.727 37.9615C185.087 55.1222 193.548 77.2697 193.548 100.324C193.548 121.886 186.038 142.925 172.4 159.573L177.391 163.664C191.972 145.864 200 123.373 200 100.324C200 75.6804 190.954 52.0051 174.532 33.6567V33.6567Z" fill="black"/>
<path d="M84.48 128V120.296H78.72V113.312H84.48V107.696H78.72V98.768H84.48V76.592H100.896C107.52 76.592 112.344 77.936 115.368 80.624C118.44 83.312 119.976 87.008 119.976 91.712C119.976 94.496 119.352 97.112 118.104 99.56C116.856 102.008 114.768 103.976 111.84 105.464C108.96 106.952 105.024 107.696 100.032 107.696H95.352V113.312H106.44V120.296H95.352V128H84.48ZM95.352 98.768H98.952C102.024 98.768 104.448 98.24 106.224 97.184C108.048 96.128 108.96 94.424 108.96 92.072C108.96 87.704 106.08 85.52 100.32 85.52H95.352V98.768Z" fill="white"/>
</svg>
