<svg width="72" height="72" viewBox="0 0 72 72" fill="none" xmlns="http://www.w3.org/2000/svg">
<path d="M55.7419 15.0968H67.3548V24.3871H55.7419V15.0968Z" fill="#377EF9"/>
<path d="M41.8065 27.871H63.871V34.8387H41.8065V27.871Z" fill="#377EF9"/>
<path d="M55.7419 38.3226H67.3548V42.9678H55.7419V38.3226Z" fill="#377EF9"/>
<path d="M37.1613 46.4517H46.4516V58.0646H37.1613V46.4517Z" fill="#377EF9"/>
<path d="M18.5807 40.6452H11.6129V33.6775H18.5807V40.6452Z" fill="#377EF9"/>
<path d="M30.1936 40.6452H23.2258V33.6775H30.1936V40.6452Z" fill="#377EF9"/>
<path d="M18.5807 51.0968H11.6129V44.129H18.5807V51.0968Z" fill="#377EF9"/>
<path d="M30.1936 51.0968H23.2258V44.129H30.1936V51.0968Z" fill="#377EF9"/>
<path d="M69.6774 69.6774H72V72H69.6774V69.6774Z" fill="black"/>
<path d="M0 69.6774H2.32258V72H0V69.6774Z" fill="black"/>
<path d="M37.1613 46.4517H39.4839V48.7742H37.1613V46.4517Z" fill="black"/>
<path d="M44.129 46.4517H46.4516V48.7742H44.129V46.4517Z" fill="black"/>
<path d="M37.1613 51.0968H39.4839V53.4194H37.1613V51.0968Z" fill="black"/>
<path d="M44.129 51.0968H46.4516V53.4194H44.129V51.0968Z" fill="black"/>
<path d="M37.1613 55.7419H39.4839V58.0645H37.1613V55.7419Z" fill="black"/>
<path d="M44.129 55.7419H46.4516V58.0645H44.129V55.7419Z" fill="black"/>
<path d="M62.0292 0H37.1613V37.1613H34.8387V27.871H32.5161V20.9032H27.8709V14.7634L22.0645 5.47303V0H19.7419V5.47303L13.9355 14.7634V20.9032H9.2903V27.871H6.96772V69.6774H4.64514V72H67.3548V69.6774H51.0968V48.7742H72V9.97077L62.0292 0ZM62.7097 3.96472L68.0353 9.29032H62.7097V3.96472ZM45.2903 39.4839V41.8064H34.8387V39.4839H45.2903ZM24.6145 13.9355H17.192L20.9032 7.99805L24.6145 13.9355ZM16.258 16.2581H25.5484V20.9032H22.0645V18.5806H19.7419V20.9032H16.258V16.2581ZM11.6129 23.2258H30.1935V27.871H11.6129V23.2258ZM9.2903 30.1935H32.5161V69.6774H27.8709V53.4194H13.9355V69.6774H9.2903V30.1935ZM25.5484 69.6774H16.258V55.7419H25.5484V69.6774ZM44.129 69.6774H39.4838V62.7097H44.129V69.6774ZM46.4516 69.6774V60.3871H37.1613V69.6774H34.8387V44.129H48.7742V69.6774H46.4516ZM51.0968 46.4516V41.8064H47.6129V37.1613H39.4838V2.32258H60.3871V11.6129H69.6774V46.4516H51.0968Z" fill="black"/>
<path d="M55.7419 13.9354H67.3548V16.258H55.7419V13.9354Z" fill="black"/>
<path d="M55.7419 18.5807H67.3548V20.9033H55.7419V18.5807Z" fill="black"/>
<path d="M55.7419 23.2258H67.3548V25.5484H55.7419V23.2258Z" fill="black"/>
<path d="M55.7419 37.1613H67.3548V39.4838H55.7419V37.1613Z" fill="black"/>
<path d="M55.7419 41.8064H67.3548V44.129H55.7419V41.8064Z" fill="black"/>
<path d="M41.8065 27.871H59.2258V30.1936H41.8065V27.871Z" fill="black"/>
<path d="M61.5484 27.871H63.871V30.1936H61.5484V27.871Z" fill="black"/>
<path d="M41.8065 32.5161H59.2258V34.8387H41.8065V32.5161Z" fill="black"/>
<path d="M61.5484 32.5161H63.871V34.8387H61.5484V32.5161Z" fill="black"/>
<path d="M43.62 22V20.074H42.18V18.328H43.62V16.924H42.18V14.692H43.62V9.148H47.724C49.38 9.148 50.586 9.484 51.342 10.156C52.11 10.828 52.494 11.752 52.494 12.928C52.494 13.624 52.338 14.278 52.026 14.89C51.714 15.502 51.192 15.994 50.46 16.366C49.74 16.738 48.756 16.924 47.508 16.924H46.338V18.328H49.11V20.074H46.338V22H43.62ZM46.338 14.692H47.238C48.006 14.692 48.612 14.56 49.056 14.296C49.512 14.032 49.74 13.606 49.74 13.018C49.74 11.926 49.02 11.38 47.58 11.38H46.338V14.692Z" fill="#162D5A"/>
</svg>
