<svg width="72" height="72" viewBox="0 0 72 72" fill="none" xmlns="http://www.w3.org/2000/svg">
<path d="M69.6774 69.6774H72V72H69.6774V69.6774Z" fill="black"/>
<path d="M46.4516 25.5483H60.3871V55.7419H46.4516V25.5483Z" fill="#377EF9"/>
<path d="M15.0968 30.1935C6.77268 30.1935 0 23.4209 0 15.0968C0 6.77268 6.77268 0 15.0968 0C23.4209 0 30.1935 6.77268 30.1935 15.0968C30.1935 23.4209 23.4209 30.1935 15.0968 30.1935Z" fill="#DFE7E9"/>
<path d="M15.0968 6.96772C19.5792 6.96772 23.2258 10.6143 23.2258 15.0968C23.2258 16.9107 22.6338 18.6328 21.5128 20.0753L23.3466 21.5003C24.7869 19.6455 25.5484 17.4324 25.5484 15.0968C25.5484 9.33453 20.859 4.64514 15.0968 4.64514C12.7612 4.64514 10.548 5.40667 8.69324 6.84694L10.1182 8.68074C11.5607 7.55971 13.2828 6.96772 15.0968 6.96772Z" fill="black"/>
<path d="M15.0968 25.5484C17.4324 25.5484 19.6455 24.7869 21.5003 23.3466L20.0753 21.5128C18.6328 22.6338 16.9107 23.2258 15.0968 23.2258C10.6143 23.2258 6.96772 19.5792 6.96772 15.0968C6.96772 13.2828 7.55971 11.5607 8.68074 10.1182L6.84694 8.69324C5.40667 10.548 4.64514 12.7612 4.64514 15.0968C4.64514 20.859 9.33453 25.5484 15.0968 25.5484Z" fill="black"/>
<path d="M65.0322 20.9032H62.7097V11.6129H60.3871V6.96774H54.5806V0H52.258V6.96774H46.4516V11.6129H44.129V20.9032H41.8064V37.1613H39.4839V30.1935H37.1613V25.5484H33.6774V19.7419H31.3548V25.5484H27.8709V30.1935H25.5484V37.1613H20.9032V69.6774H18.5806V72H67.3548V69.6774H65.0322V20.9032ZM48.7742 9.29032H58.0645V11.6129H48.7742V9.29032ZM46.4516 13.9355H60.3871V20.9032H58.0645V16.2581H55.7419V20.9032H51.0968V16.2581H48.7742V20.9032H46.4516V13.9355ZM62.7097 23.2258V69.6774H59.2258V58.0645H47.6129V69.6774H44.129V23.2258H62.7097ZM56.9032 69.6774H49.9355V60.3871H56.9032V69.6774ZM30.1935 27.871H34.8387V30.1935H30.1935V27.871ZM27.8709 32.5161H37.1613V37.1613H33.6774V34.8387H31.3548V37.1613H27.8709V32.5161ZM23.2258 39.4839H41.8064V69.6774H39.4839V41.8064H37.1613V69.6774H33.6774V41.8064H31.3548V69.6774H27.8709V41.8064H25.5484V69.6774H23.2258V39.4839Z" fill="black"/>
<path d="M46.4516 25.5483H48.7742V27.8709H46.4516V25.5483Z" fill="black"/>
<path d="M52.2581 25.5483H54.5806V27.8709H52.2581V25.5483Z" fill="black"/>
<path d="M58.0645 25.5483H60.3871V27.8709H58.0645V25.5483Z" fill="black"/>
<path d="M46.4516 32.5161H48.7742V34.8387H46.4516V32.5161Z" fill="black"/>
<path d="M52.2581 32.5161H54.5806V34.8387H52.2581V32.5161Z" fill="black"/>
<path d="M58.0645 32.5161H60.3871V34.8387H58.0645V32.5161Z" fill="black"/>
<path d="M46.4516 39.4839H48.7742V41.8065H46.4516V39.4839Z" fill="black"/>
<path d="M52.2581 39.4839H54.5806V41.8065H52.2581V39.4839Z" fill="black"/>
<path d="M58.0645 39.4839H60.3871V41.8065H58.0645V39.4839Z" fill="black"/>
<path d="M46.4516 46.4517H48.7742V48.7742H46.4516V46.4517Z" fill="black"/>
<path d="M52.2581 46.4517H54.5806V48.7742H52.2581V46.4517Z" fill="black"/>
<path d="M58.0645 46.4517H60.3871V48.7742H58.0645V46.4517Z" fill="black"/>
<path d="M46.4516 53.4193H48.7742V55.7419H46.4516V53.4193Z" fill="black"/>
<path d="M52.2581 53.4193H54.5806V55.7419H52.2581V53.4193Z" fill="black"/>
<path d="M58.0645 53.4193H60.3871V55.7419H58.0645V53.4193Z" fill="black"/>
<path d="M0 34.8387H2.32258V37.1613H0V34.8387Z" fill="black"/>
<path d="M0 39.4839H2.32258V53.4194H0V39.4839Z" fill="black"/>
<path d="M6.96771 42.9678H9.29029V45.2904H6.96771V42.9678Z" fill="black"/>
<path d="M6.96771 47.6129H9.29029V61.5484H6.96771V47.6129Z" fill="black"/>
<path d="M13.9355 34.8387H16.2581V37.1613H13.9355V34.8387Z" fill="black"/>
<path d="M13.9355 39.4839H16.2581V53.4194H13.9355V39.4839Z" fill="black"/>
<path d="M13.9355 69.6774H16.2581V72H13.9355V69.6774Z" fill="black"/>
</svg>
